<svg viewBox="0 0 721 1096" fill="none" xmlns="http://www.w3.org/2000/svg">
  <path
    d="M721 548.009C721 594.418 704.714 640.808 672.126 676.115L310.414 1068.21C276.233 1105.26 220.817 1105.26 186.636 1068.21C152.455 1031.16 152.455 971.087 186.636 934.035L542.764 547.991L186.653 161.965C152.472 124.913 152.472 64.8419 186.653 27.7894C220.834 -9.2631 276.25 -9.2631 310.432 27.7894L672.126 419.885C704.714 455.211 721 501.619 721 548.009Z"
    fill="#" />
  <path
    d="M559 548.018C559 596.412 541.652 641.91 510.135 676.141L149.125 1068.21C115.01 1105.26 59.7012 1105.26 25.5863 1068.21C-8.52868 1031.16 -8.52869 971.089 25.5863 934.037L381.025 548L25.5862 161.963C-8.52873 124.911 -8.52873 64.8408 25.5862 27.7889C59.7012 -9.26293 115.01 -9.26293 149.125 27.7889L510.135 419.896C541.652 454.127 559 499.625 559 548.018Z"
    fill="#" />
</svg>
  