<svg viewBox="0 0 721 1096" fill="none" xmlns="http://www.w3.org/2000/svg">
  <path
    d="M3.57713e-05 548.009C3.39089e-05 594.418 16.2858 640.808 48.8744 676.115L410.586 1068.21C444.767 1105.26 500.183 1105.26 534.364 1068.21C568.545 1031.16 568.545 971.087 534.364 934.035L178.236 547.991L534.347 161.965C568.528 124.913 568.528 64.8419 534.347 27.7894C500.166 -9.2631 444.75 -9.2631 410.569 27.7894L48.8745 419.885C16.2858 455.211 3.76329e-05 501.619 3.57713e-05 548.009Z"
    fill="#" />
  <path
    d="M162 548.018C162 596.412 179.348 641.91 210.865 676.141L571.875 1068.21C605.99 1105.26 661.299 1105.26 695.414 1068.21C729.529 1031.16 729.529 971.089 695.414 934.037L339.975 548L695.414 161.963C729.529 124.911 729.529 64.8408 695.414 27.7889C661.299 -9.26293 605.99 -9.26293 571.875 27.7889L210.865 419.896C179.348 454.127 162 499.625 162 548.018Z"
    fill="#" />
</svg>
  